<?xml version="1.0" encoding="UTF-8" standalone="no"?>
<!DOCTYPE svg PUBLIC "-//W3C//DTD SVG 1.1//EN" "http://www.w3.org/Graphics/SVG/1.1/DTD/svg11.dtd">
<!-- Created with Vectornator (http://vectornator.io/) -->
<svg height="100%" stroke-miterlimit="10" style="fill-rule:nonzero;clip-rule:evenodd;stroke-linecap:round;stroke-linejoin:round;" version="1.1" viewBox="0 0 218.713 56.9015" width="100%" xml:space="preserve" xmlns="http://www.w3.org/2000/svg" xmlns:xlink="http://www.w3.org/1999/xlink">
<defs>
<clipPath id="TextBounds">
<rect height="32.2617" width="166.562" x="51.7526" y="12.5"/>
</clipPath>
<clipPath id="TextBounds_2">
<rect height="1" width="0" x="-0.0868331" y="-8.18514"/>
</clipPath>
<clipPath id="TextBounds_3">
<rect height="33.9367" width="46.9336" x="9.9203" y="10.9824"/>
</clipPath>
</defs>
<clipPath id="ArtboardFrame">
<rect height="56.9015" width="218.713" x="0" y="0"/>
</clipPath>
<g clip-path="url(#ArtboardFrame)" id="Layer-1">
<g fill="#ff9500" opacity="1" stroke="none">
<path clip-path="url(#TextBounds)" d="M74.901 17.5564C77.4077 17.5564 79.3528 18.2168 80.7364 19.5375C82.12 20.8582 82.8882 22.3586 83.0409 24.0386L80.4264 24.0386C80.13 22.7629 79.5392 21.7521 78.6543 21.0064C77.7693 20.2607 76.5272 19.8879 74.928 19.8879C72.9784 19.8879 71.4039 20.5729 70.2045 21.943C69.005 23.3131 68.4053 25.4132 68.4053 28.2433C68.4053 30.5613 68.9467 32.4413 70.0293 33.8833C71.1119 35.3253 72.7268 36.0463 74.8741 36.0463C76.8507 36.0463 78.3555 35.2871 79.3887 33.7687C79.9368 32.9691 80.3456 31.9179 80.6151 30.6152L83.2296 30.6152C82.996 32.6996 82.2233 34.447 80.9116 35.8576C79.3393 37.5556 77.219 38.4046 74.5507 38.4046C72.2507 38.4046 70.319 37.7084 68.7557 36.3158C66.6983 34.474 65.6696 31.6304 65.6696 27.7851C65.6696 24.8652 66.4423 22.4709 67.9876 20.6021C69.6587 18.5716 71.9632 17.5564 74.901 17.5564Z"/>
<path clip-path="url(#TextBounds)" d="M91.895 36.3293C93.5032 36.3293 94.606 35.7206 95.2035 34.5032C95.8009 33.2858 96.0997 31.9314 96.0997 30.44C96.0997 29.0923 95.8841 27.9963 95.4528 27.1517C94.77 25.822 93.593 25.1572 91.9219 25.1572C90.4395 25.1572 89.3614 25.7232 88.6876 26.8552C88.0137 27.9873 87.6768 29.3529 87.6768 30.9521C87.6768 32.4884 88.0137 33.7687 88.6876 34.7929C89.3614 35.8171 90.4305 36.3293 91.895 36.3293ZM91.9893 23.0414C93.8491 23.0414 95.4214 23.6613 96.7061 24.9011C97.9909 26.141 98.6333 27.9648 98.6333 30.3726C98.6333 32.6996 98.0673 34.6222 96.9352 36.1406C95.8032 37.6589 94.0467 38.4181 91.6659 38.4181C89.6803 38.4181 88.1036 37.7465 86.9356 36.4034C85.7676 35.0602 85.1837 33.2566 85.1837 30.9925C85.1837 28.5668 85.7991 26.6351 87.03 25.1976C88.2608 23.7601 89.9139 23.0414 91.9893 23.0414Z"/>
<path clip-path="url(#TextBounds)" d="M101.585 18.0955L104.01 18.0955L104.01 37.8925L101.585 37.8925L101.585 18.0955Z"/>
<path clip-path="url(#TextBounds)" d="M107.716 18.0955L110.142 18.0955L110.142 37.8925L107.716 37.8925L107.716 18.0955Z"/>
<path clip-path="url(#TextBounds)" d="M115.641 34.0517C115.641 34.7525 115.897 35.305 116.409 35.7093C116.921 36.1136 117.527 36.3158 118.228 36.3158C119.082 36.3158 119.908 36.1181 120.708 35.7228C122.056 35.067 122.729 33.9933 122.729 32.5019L122.729 30.5478C122.433 30.7365 122.051 30.8937 121.584 31.0195C121.117 31.1453 120.658 31.2351 120.209 31.289L118.74 31.4777C117.86 31.5945 117.199 31.7787 116.759 32.0302C116.014 32.4525 115.641 33.1263 115.641 34.0517ZM121.516 29.1463C122.074 29.0744 122.446 28.8408 122.635 28.4455C122.743 28.2298 122.797 27.9199 122.797 27.5156C122.797 26.689 122.503 26.0893 121.914 25.7165C121.326 25.3436 120.483 25.1572 119.387 25.1572C118.12 25.1572 117.222 25.4986 116.692 26.1814C116.395 26.5588 116.202 27.1203 116.112 27.866L113.848 27.866C113.893 26.0871 114.47 24.8495 115.58 24.1532C116.69 23.4569 117.977 23.1088 119.441 23.1088C121.139 23.1088 122.518 23.4322 123.578 24.0791C124.63 24.7259 125.155 25.7322 125.155 27.0978L125.155 35.4129C125.155 35.6644 125.207 35.8666 125.31 36.0193C125.413 36.172 125.631 36.2484 125.964 36.2484C126.072 36.2484 126.193 36.2417 126.328 36.2282C126.462 36.2147 126.606 36.1945 126.759 36.1675L126.759 37.9599C126.382 38.0677 126.094 38.1351 125.896 38.1621C125.699 38.189 125.429 38.2025 125.088 38.2025C124.252 38.2025 123.646 37.906 123.268 37.313C123.071 36.9986 122.932 36.5539 122.851 35.9789C122.357 36.6257 121.647 37.1873 120.721 37.6634C119.796 38.1396 118.776 38.3777 117.662 38.3777C116.324 38.3777 115.23 37.9712 114.381 37.1581C113.532 36.345 113.107 35.3275 113.107 34.1056C113.107 32.767 113.525 31.7293 114.36 30.9925C115.196 30.2558 116.292 29.8021 117.649 29.6314L121.516 29.1463Z"/>
<path clip-path="url(#TextBounds)" d="M128.942 18.0281L131.3 18.0281L131.3 25.2111C131.831 24.5193 132.464 23.9915 133.201 23.6276C133.937 23.2637 134.737 23.0818 135.599 23.0818C137.396 23.0818 138.854 23.6995 139.973 24.9348C141.091 26.1702 141.65 27.9918 141.65 30.3996C141.65 32.6816 141.098 34.5773 139.993 36.0867C138.888 37.5961 137.356 38.3507 135.397 38.3507C134.301 38.3507 133.376 38.0857 132.621 37.5556C132.172 37.2412 131.691 36.738 131.179 36.0463L131.179 37.8925L128.942 37.8925L128.942 18.0281ZM135.249 36.208C136.561 36.208 137.542 35.6869 138.194 34.6447C138.845 33.6025 139.171 32.2279 139.171 30.5209C139.171 29.0025 138.845 27.7447 138.194 26.7474C137.542 25.7502 136.583 25.2515 135.316 25.2515C134.211 25.2515 133.243 25.6603 132.412 26.4779C131.581 27.2955 131.166 28.6431 131.166 30.5209C131.166 31.8775 131.336 32.9781 131.678 33.8226C132.316 35.4129 133.506 36.208 135.249 36.208Z"/>
<path clip-path="url(#TextBounds)" d="M150.208 36.3293C151.816 36.3293 152.919 35.7206 153.517 34.5032C154.114 33.2858 154.413 31.9314 154.413 30.44C154.413 29.0923 154.197 27.9963 153.766 27.1517C153.083 25.822 151.906 25.1572 150.235 25.1572C148.753 25.1572 147.674 25.7232 147.001 26.8552C146.327 27.9873 145.99 29.3529 145.99 30.9521C145.99 32.4884 146.327 33.7687 147.001 34.7929C147.674 35.8171 148.744 36.3293 150.208 36.3293ZM150.302 23.0414C152.162 23.0414 153.734 23.6613 155.019 24.9011C156.304 26.141 156.946 27.9648 156.946 30.3726C156.946 32.6996 156.38 34.6222 155.248 36.1406C154.116 37.6589 152.36 38.4181 149.979 38.4181C147.993 38.4181 146.417 37.7465 145.249 36.4034C144.081 35.0602 143.497 33.2566 143.497 30.9925C143.497 28.5668 144.112 26.6351 145.343 25.1976C146.574 23.7601 148.227 23.0414 150.302 23.0414Z"/>
<path clip-path="url(#TextBounds)" d="M159.898 23.4591L162.202 23.4591L162.202 25.9523C162.391 25.4671 162.854 24.8764 163.59 24.1801C164.327 23.4838 165.176 23.1357 166.137 23.1357C166.182 23.1357 166.259 23.1402 166.366 23.1492C166.474 23.1582 166.658 23.1761 166.919 23.2031L166.919 25.7636C166.775 25.7367 166.643 25.7187 166.521 25.7097C166.4 25.7007 166.268 25.6963 166.124 25.6963C164.902 25.6963 163.963 26.0893 163.307 26.8754C162.651 27.6616 162.324 28.5668 162.324 29.591L162.324 37.8925L159.898 37.8925L159.898 23.4591Z"/>
<path clip-path="url(#TextBounds)" d="M170.881 34.0517C170.881 34.7525 171.137 35.305 171.649 35.7093C172.161 36.1136 172.768 36.3158 173.469 36.3158C174.322 36.3158 175.149 36.1181 175.948 35.7228C177.296 35.067 177.97 33.9933 177.97 32.5019L177.97 30.5478C177.673 30.7365 177.291 30.8937 176.824 31.0195C176.357 31.1453 175.899 31.2351 175.45 31.289L173.981 31.4777C173.1 31.5945 172.44 31.7787 172 32.0302C171.254 32.4525 170.881 33.1263 170.881 34.0517ZM176.757 29.1463C177.314 29.0744 177.687 28.8408 177.875 28.4455C177.983 28.2298 178.037 27.9199 178.037 27.5156C178.037 26.689 177.743 26.0893 177.154 25.7165C176.566 25.3436 175.724 25.1572 174.628 25.1572C173.361 25.1572 172.462 25.4986 171.932 26.1814C171.636 26.5588 171.443 27.1203 171.353 27.866L169.089 27.866C169.134 26.0871 169.711 24.8495 170.82 24.1532C171.93 23.4569 173.217 23.1088 174.682 23.1088C176.38 23.1088 177.759 23.4322 178.819 24.0791C179.87 24.7259 180.396 25.7322 180.396 27.0978L180.396 35.4129C180.396 35.6644 180.447 35.8666 180.551 36.0193C180.654 36.172 180.872 36.2484 181.204 36.2484C181.312 36.2484 181.433 36.2417 181.568 36.2282C181.703 36.2147 181.847 36.1945 181.999 36.1675L181.999 37.9599C181.622 38.0677 181.334 38.1351 181.137 38.1621C180.939 38.189 180.67 38.2025 180.328 38.2025C179.493 38.2025 178.886 37.906 178.509 37.313C178.311 36.9986 178.172 36.5539 178.091 35.9789C177.597 36.6257 176.887 37.1873 175.962 37.6634C175.036 38.1396 174.017 38.3777 172.903 38.3777C171.564 38.3777 170.47 37.9712 169.621 37.1581C168.772 36.345 168.348 35.3275 168.348 34.1056C168.348 32.767 168.765 31.7293 169.601 30.9925C170.436 30.2558 171.532 29.8021 172.889 29.6314L176.757 29.1463Z"/>
<path clip-path="url(#TextBounds)" d="M184.856 19.4296L187.309 19.4296L187.309 23.4591L189.614 23.4591L189.614 25.4402L187.309 25.4402L187.309 34.8603C187.309 35.3634 187.48 35.7004 187.821 35.8711C188.01 35.9699 188.324 36.0193 188.765 36.0193C188.881 36.0193 189.007 36.0171 189.142 36.0126C189.277 36.0081 189.434 35.9968 189.614 35.9789L189.614 37.8925C189.335 37.9734 189.045 38.0318 188.744 38.0677C188.443 38.1037 188.118 38.1216 187.767 38.1216C186.635 38.1216 185.867 37.8319 185.463 37.2524C185.058 36.6729 184.856 35.9205 184.856 34.9951L184.856 25.4402L182.902 25.4402L182.902 23.4591L184.856 23.4591L184.856 19.4296Z"/>
<path clip-path="url(#TextBounds)" d="M198.05 23.1357C199.074 23.1357 200.067 23.376 201.028 23.8567C201.99 24.3374 202.722 24.9595 203.225 25.7232C203.71 26.4509 204.033 27.3 204.195 28.2703C204.339 28.9351 204.411 29.9953 204.411 31.4507L193.832 31.4507C193.877 32.9152 194.223 34.0899 194.869 34.9749C195.516 35.8598 196.518 36.3023 197.875 36.3023C199.141 36.3023 200.152 35.8845 200.907 35.049C201.338 34.5638 201.644 34.0023 201.823 33.3644L204.209 33.3644C204.146 33.8945 203.937 34.4852 203.582 35.1366C203.227 35.7879 202.83 36.3203 202.389 36.7336C201.653 37.4523 200.741 37.9375 199.654 38.189C199.07 38.3328 198.409 38.4046 197.673 38.4046C195.876 38.4046 194.353 37.751 193.104 36.4438C191.855 35.1366 191.231 33.306 191.231 30.9521C191.231 28.6341 191.86 26.7519 193.117 25.3054C194.375 23.8589 196.019 23.1357 198.05 23.1357ZM201.918 29.5236C201.819 28.4724 201.59 27.6324 201.23 27.0035C200.566 25.8355 199.456 25.2515 197.902 25.2515C196.788 25.2515 195.853 25.6536 195.099 26.4577C194.344 27.2618 193.944 28.2838 193.899 29.5236L201.918 29.5236Z"/>
</g>
<g fill="#ff3b30" opacity="1" stroke="none"/>
<path d="M8.27 2.05L209.97 2.05C213.703 2.05 216.73 5.07656 216.73 8.81L216.73 47.64C216.73 51.3734 213.703 54.4 209.97 54.4L8.27 54.4C4.53656 54.4 1.51 51.3734 1.51 47.64L1.51 8.81C1.51 5.07656 4.53656 2.05 8.27 2.05Z" fill="none" opacity="1" stroke="#ff9500" stroke-linecap="butt" stroke-linejoin="round" stroke-width="1.99352"/>
<path clip-path="url(#TextBounds_3)" d="M31.7699 39.8761L48.71 39.8761C49.7701 39.8761 50.5136 39.7257 50.9403 39.4247C51.3671 39.1237 51.5805 38.6767 51.5805 38.0838C51.5805 37.2213 51.3177 36.3093 50.7921 35.348C50.2665 34.3867 49.5118 33.486 48.528 32.646C47.5442 31.8059 46.3538 31.1231 44.9567 30.5975C43.5597 30.0719 41.9851 29.8091 40.2332 29.8091C38.4902 29.8091 36.9202 30.0719 35.5231 30.5975C34.1261 31.1231 32.9356 31.8059 31.9518 32.646C30.9681 33.486 30.2134 34.3867 29.6878 35.348C29.1622 36.3093 28.8994 37.2213 28.8994 38.0838C28.8994 38.6767 29.1128 39.1237 29.5395 39.4247C29.9663 39.7257 30.7098 39.8761 31.7699 39.8761ZM40.2467 27.3968C41.208 27.3968 42.0975 27.1341 42.915 26.6085C43.7326 26.0829 44.3907 25.3709 44.8893 24.4724C45.388 23.574 45.6373 22.5633 45.6373 21.4402C45.6373 20.3351 45.388 19.3446 44.8893 18.4686C44.3907 17.5926 43.7326 16.9031 42.915 16.4C42.0975 15.8968 41.208 15.6453 40.2467 15.6453C39.2853 15.6453 38.3959 15.9013 37.5783 16.4134C36.7607 16.9256 36.1026 17.6218 35.604 18.5023C35.1054 19.3828 34.856 20.3711 34.856 21.4672C34.856 22.5812 35.1054 23.5852 35.604 24.4792C36.1026 25.3731 36.7607 26.0829 37.5783 26.6085C38.3959 27.1341 39.2853 27.3968 40.2467 27.3968ZM17.2287 39.8761L27.4574 39.8761C27.107 39.364 26.9408 38.7486 26.9588 38.0299C26.9767 37.3111 27.143 36.5564 27.4574 35.7658C27.7719 34.9752 28.2054 34.2092 28.7579 33.468C29.3104 32.7268 29.9506 32.0732 30.6783 31.5072C29.9236 31.0041 29.0589 30.5885 28.0841 30.2606C27.1093 29.9327 25.993 29.7687 24.7351 29.7687C23.2168 29.7687 21.8489 30.018 20.6315 30.5167C19.4142 31.0153 18.3765 31.6712 17.5184 32.4842C16.6604 33.2973 16.0023 34.1845 15.5441 35.1459C15.0859 36.1072 14.8568 37.055 14.8568 37.9894C14.8568 38.5914 15.0388 39.0563 15.4026 39.3842C15.7665 39.7122 16.3752 39.8761 17.2287 39.8761ZM24.7351 27.7068C25.5797 27.7068 26.3568 27.4777 27.0666 27.0195C27.7764 26.5613 28.3469 25.9391 28.7781 25.153C29.2094 24.3669 29.425 23.4886 29.425 22.5183C29.425 21.548 29.2094 20.6833 28.7781 19.9241C28.3469 19.1649 27.7741 18.5674 27.0599 18.1317C26.3456 17.696 25.5707 17.4781 24.7351 17.4781C23.9086 17.4781 23.1382 17.7005 22.4239 18.1452C21.7097 18.5899 21.1324 19.1941 20.6922 19.9578C20.2519 20.7215 20.0363 21.584 20.0453 22.5453C20.0453 23.5066 20.2609 24.3781 20.6922 25.1597C21.1234 25.9414 21.6962 26.5613 22.4104 27.0195C23.1247 27.4777 23.8996 27.7068 24.7351 27.7068Z" fill="#ff9500" opacity="1" stroke="none"/>
</g>
</svg>
