<?xml version="1.0" encoding="UTF-8" standalone="no"?>
<!DOCTYPE svg PUBLIC "-//W3C//DTD SVG 1.1//EN" "http://www.w3.org/Graphics/SVG/1.1/DTD/svg11.dtd">
<!-- Created with Vectornator (http://vectornator.io/) -->
<svg height="100%" stroke-miterlimit="10" style="fill-rule:nonzero;clip-rule:evenodd;stroke-linecap:round;stroke-linejoin:round;" version="1.1" viewBox="0 0 199.591 56.9015" width="100%" xml:space="preserve" xmlns="http://www.w3.org/2000/svg" xmlns:xlink="http://www.w3.org/1999/xlink">
<defs>
<clipPath id="TextBounds">
<rect height="1" width="0" x="131.08" y="275.891"/>
</clipPath>
<clipPath id="TextBounds_2">
<rect height="32.5367" width="247.176" x="45.3158" y="13.7335"/>
</clipPath>
<clipPath id="TextBounds_3">
<rect height="33.7286" width="38.5329" x="6.33561" y="10.7391"/>
</clipPath>
</defs>
<clipPath id="ArtboardFrame">
<rect height="56.9015" width="199.591" x="0" y="0"/>
</clipPath>
<g clip-path="url(#ArtboardFrame)" id="Layer-1">
<g fill="#ff3b30" opacity="1" stroke="none"/>
<g opacity="1">
<g fill="#ff3b30" opacity="1" stroke="none">
<path clip-path="url(#TextBounds_2)" d="M48.9718 38.5612L48.9718 18.9294L57.6762 18.9294C59.426 18.9294 60.7562 19.1057 61.6668 19.4583C62.5774 19.811 63.305 20.4337 63.8496 21.3264C64.3942 22.2192 64.6665 23.2057 64.6665 24.2859C64.6665 25.6786 64.2157 26.8526 63.314 27.8079C62.4123 28.7631 61.0196 29.3702 59.1359 29.6291C59.8233 29.9594 60.3455 30.2853 60.7026 30.6067C61.4615 31.303 62.1802 32.1735 62.8587 33.218L66.2735 38.5612L63.006 38.5612L60.408 34.4768C59.6492 33.2983 59.0243 32.3967 58.5332 31.7717C58.0422 31.1468 57.6025 30.7093 57.2142 30.4594C56.8258 30.2094 56.4308 30.0353 56.0291 29.9371C55.7344 29.8746 55.2523 29.8434 54.5828 29.8434L51.5697 29.8434L51.5697 38.5612L48.9718 38.5612ZM51.5697 27.5936L57.1539 27.5936C58.3413 27.5936 59.2698 27.4709 59.9393 27.2253C60.6089 26.9798 61.1178 26.587 61.466 26.0469C61.8141 25.5068 61.9882 24.9198 61.9882 24.2859C61.9882 23.3575 61.6512 22.5942 60.9772 21.996C60.3031 21.3979 59.2385 21.0988 57.7833 21.0988L51.5697 21.0988L51.5697 27.5936Z"/>
<path clip-path="url(#TextBounds_2)" d="M78.165 33.9813L80.6558 34.2893C80.263 35.7445 79.5354 36.8738 78.473 37.6773C77.4107 38.4808 76.0537 38.8826 74.4021 38.8826C72.3219 38.8826 70.6725 38.242 69.4539 36.9609C68.2353 35.6798 67.626 33.8831 67.626 31.5709C67.626 29.1783 68.242 27.3213 69.474 26C70.706 24.6787 72.3041 24.0181 74.2681 24.0181C76.1697 24.0181 77.7231 24.6654 78.9283 25.9599C80.1336 27.2544 80.7362 29.0756 80.7362 31.4235C80.7362 31.5664 80.7317 31.7807 80.7228 32.0663L70.1168 32.0663C70.2061 33.6287 70.648 34.825 71.4426 35.6552C72.2371 36.4855 73.2281 36.9006 74.4154 36.9006C75.2993 36.9006 76.0537 36.6685 76.6786 36.2043C77.3035 35.74 77.799 34.9991 78.165 33.9813ZM70.2507 30.0844L78.1918 30.0844C78.0847 28.8881 77.7811 27.9909 77.2812 27.3927C76.5134 26.4643 75.518 26 74.2949 26C73.1879 26 72.2572 26.3705 71.5028 27.1115C70.7484 27.8525 70.3311 28.8435 70.2507 30.0844Z"/>
<path clip-path="url(#TextBounds_2)" d="M83.6823 44.0115L83.6823 24.3395L85.8785 24.3395L85.8785 26.1875C86.3963 25.4644 86.981 24.922 87.6328 24.5605C88.2845 24.1989 89.0746 24.0181 90.003 24.0181C91.2172 24.0181 92.2885 24.3306 93.217 24.9555C94.1454 25.5804 94.8463 26.462 95.3194 27.6003C95.7926 28.7386 96.0292 29.9862 96.0292 31.3432C96.0292 32.7984 95.768 34.1085 95.2458 35.2736C94.7235 36.4386 93.9647 37.3314 92.9692 37.9519C91.9738 38.5723 90.927 38.8826 89.8289 38.8826C89.0255 38.8826 88.3046 38.7129 87.6662 38.3737C87.0279 38.0344 86.5034 37.6059 86.0927 37.0881L86.0927 44.0115L83.6823 44.0115ZM85.8651 31.5307C85.8651 33.3608 86.2356 34.7134 86.9766 35.5883C87.7176 36.4632 88.6148 36.9006 89.6682 36.9006C90.7396 36.9006 91.6569 36.4476 92.4202 35.5414C93.1835 34.6353 93.5651 33.2314 93.5651 31.3298C93.5651 29.5175 93.1924 28.1605 92.447 27.2588C91.7015 26.3571 90.811 25.9063 89.7754 25.9063C88.7487 25.9063 87.8403 26.3861 87.0502 27.3459C86.2601 28.3056 85.8651 29.7005 85.8651 31.5307Z"/>
<path clip-path="url(#TextBounds_2)" d="M98.0379 31.4503C98.0379 28.8167 98.7699 26.866 100.234 25.5983C101.457 24.5448 102.948 24.0181 104.707 24.0181C106.662 24.0181 108.26 24.6587 109.501 25.9398C110.742 27.2209 111.362 28.9908 111.362 31.2495C111.362 33.0796 111.088 34.5192 110.539 35.5682C109.99 36.6172 109.191 37.4318 108.142 38.0121C107.093 38.5924 105.948 38.8826 104.707 38.8826C102.716 38.8826 101.107 38.2442 99.8792 36.9676C98.6516 35.6909 98.0379 33.8519 98.0379 31.4503ZM100.515 31.4503C100.515 33.2716 100.913 34.6353 101.707 35.5414C102.502 36.4476 103.502 36.9006 104.707 36.9006C105.903 36.9006 106.899 36.4453 107.693 35.5347C108.488 34.6241 108.885 33.2359 108.885 31.37C108.885 29.6112 108.485 28.2788 107.686 27.3726C106.887 26.4665 105.894 26.0134 104.707 26.0134C103.502 26.0134 102.502 26.4643 101.707 27.366C100.913 28.2676 100.515 29.6291 100.515 31.4503Z"/>
<path clip-path="url(#TextBounds_2)" d="M114.161 38.5612L114.161 24.3395L116.331 24.3395L116.331 26.4955C116.884 25.4867 117.395 24.8216 117.864 24.5002C118.333 24.1788 118.848 24.0181 119.411 24.0181C120.223 24.0181 121.049 24.277 121.888 24.7948L121.058 27.0312C120.468 26.683 119.879 26.5089 119.29 26.5089C118.763 26.5089 118.29 26.6674 117.871 26.9843C117.451 27.3012 117.152 27.7409 116.973 28.3034C116.705 29.1604 116.572 30.0978 116.572 31.1155L116.572 38.5612L114.161 38.5612Z"/>
<path clip-path="url(#TextBounds_2)" d="M128.584 36.4051L128.932 38.5344C128.253 38.6772 127.646 38.7486 127.111 38.7486C126.236 38.7486 125.557 38.6103 125.075 38.3335C124.593 38.0568 124.254 37.693 124.057 37.2421C123.861 36.7913 123.763 35.8427 123.763 34.3964L123.763 26.2143L121.995 26.2143L121.995 24.3395L123.763 24.3395L123.763 20.8176L126.16 19.3713L126.16 24.3395L128.584 24.3395L128.584 26.2143L126.16 26.2143L126.16 34.5304C126.16 35.2178 126.202 35.6597 126.287 35.8561C126.372 36.0525 126.51 36.2087 126.702 36.3248C126.894 36.4409 127.169 36.4989 127.526 36.4989C127.794 36.4989 128.146 36.4676 128.584 36.4051Z"/>
<path clip-path="url(#TextBounds_2)" d="M138.761 38.5612L138.761 18.9294L146.126 18.9294C147.626 18.9294 148.829 19.128 149.735 19.5253C150.642 19.9226 151.351 20.5341 151.865 21.3599C152.378 22.1857 152.635 23.0495 152.635 23.9511C152.635 24.7903 152.407 25.5804 151.952 26.3214C151.496 27.0624 150.809 27.6606 149.889 28.1159C151.077 28.464 151.99 29.0577 152.628 29.8969C153.266 30.7361 153.585 31.7271 153.585 32.8698C153.585 33.7894 153.391 34.6442 153.003 35.4343C152.615 36.2244 152.135 36.8337 151.563 37.2622C150.992 37.6907 150.275 38.0143 149.414 38.2331C148.552 38.4518 147.497 38.5612 146.247 38.5612L138.761 38.5612ZM141.359 27.1785L145.604 27.1785C146.756 27.1785 147.582 27.1026 148.082 26.9508C148.742 26.7544 149.24 26.4286 149.575 25.9732C149.909 25.5179 150.077 24.9466 150.077 24.2591C150.077 23.6074 149.921 23.0338 149.608 22.5384C149.296 22.0429 148.849 21.7036 148.269 21.5206C147.689 21.3376 146.693 21.2461 145.283 21.2461L141.359 21.2461L141.359 27.1785ZM141.359 36.2445L146.247 36.2445C147.086 36.2445 147.675 36.2132 148.015 36.1507C148.613 36.0436 149.113 35.865 149.514 35.6151C149.916 35.3651 150.246 35.0013 150.505 34.5237C150.764 34.046 150.894 33.4948 150.894 32.8698C150.894 32.1378 150.706 31.5017 150.331 30.9615C149.956 30.4214 149.436 30.042 148.771 29.8233C148.106 29.6045 147.149 29.4952 145.899 29.4952L141.359 29.4952L141.359 36.2445Z"/>
<path clip-path="url(#TextBounds_2)" d="M166.173 38.5612L166.173 36.4721C165.066 38.0791 163.562 38.8826 161.66 38.8826C160.821 38.8826 160.038 38.7219 159.31 38.4005C158.583 38.0791 158.042 37.6751 157.69 37.1885C157.337 36.702 157.089 36.1061 156.947 35.4008C156.848 34.9276 156.799 34.1777 156.799 33.151L156.799 24.3395L159.21 24.3395L159.21 32.227C159.21 33.4858 159.259 34.3339 159.357 34.7714C159.509 35.4053 159.83 35.903 160.321 36.2645C160.812 36.6261 161.419 36.8069 162.142 36.8069C162.866 36.8069 163.544 36.6216 164.178 36.2511C164.812 35.8807 165.26 35.3762 165.524 34.7379C165.787 34.0996 165.919 33.1734 165.919 31.9592L165.919 24.3395L168.329 24.3395L168.329 38.5612L166.173 38.5612Z"/>
<path clip-path="url(#TextBounds_2)" d="M171.664 39.7396L174.007 40.0878C174.105 40.8109 174.378 41.3376 174.824 41.668C175.422 42.1143 176.239 42.3375 177.275 42.3375C178.391 42.3375 179.252 42.1143 179.859 41.668C180.466 41.2216 180.877 40.5967 181.091 39.7932C181.216 39.3022 181.274 38.271 181.265 36.6998C180.212 37.9407 178.9 38.5612 177.328 38.5612C175.373 38.5612 173.86 37.8559 172.789 36.4453C171.717 35.0348 171.182 33.343 171.182 31.37C171.182 30.013 171.427 28.7609 171.918 27.6137C172.409 26.4665 173.121 25.5804 174.054 24.9555C174.987 24.3306 176.083 24.0181 177.342 24.0181C179.02 24.0181 180.404 24.6966 181.493 26.0536L181.493 24.3395L183.716 24.3395L183.716 36.6328C183.716 38.8468 183.491 40.4159 183.04 41.3399C182.589 42.2639 181.875 42.9937 180.897 43.5294C179.92 44.065 178.717 44.3329 177.288 44.3329C175.592 44.3329 174.222 43.9512 173.177 43.1879C172.132 42.4246 171.628 41.2752 171.664 39.7396ZM173.659 31.1959C173.659 33.0618 174.03 34.4232 174.771 35.2803C175.512 36.1373 176.44 36.5658 177.556 36.5658C178.663 36.5658 179.591 36.1396 180.341 35.287C181.091 34.4344 181.466 33.0975 181.466 31.2762C181.466 29.5354 181.08 28.223 180.308 27.3392C179.536 26.4553 178.605 26.0134 177.516 26.0134C176.445 26.0134 175.534 26.4486 174.784 27.3191C174.034 28.1895 173.659 29.4818 173.659 31.1959Z"/>
</g>
<path d="M8.68908 2.05056L190.338 2.05056C194.303 2.05056 197.518 5.26515 197.518 9.23056L197.518 47.2208C197.518 51.1862 194.303 54.4008 190.338 54.4008L8.68908 54.4008C4.72368 54.4008 1.50908 51.1862 1.50908 47.2208L1.50908 9.23056C1.50908 5.26515 4.72368 2.05056 8.68908 2.05056Z" fill="none" opacity="1" stroke="#ff3b30" stroke-linecap="butt" stroke-linejoin="round" stroke-width="1.99352"/>
</g>
<path clip-path="url(#TextBounds_3)" d="M19.8477 13.2566L20.7583 13.5914C21.044 13.6896 21.2449 13.8191 21.3609 13.9798C21.477 14.1405 21.5082 14.3369 21.4547 14.569L21.294 15.252L23.2625 15.2386L23.3562 14.5556C23.4277 13.9039 23.3138 13.3437 23.0148 12.875C22.7157 12.4063 22.2358 12.0559 21.5752 11.8238L20.5173 11.3952C20.1869 11.2792 19.9057 11.2903 19.6736 11.4287C19.4415 11.5671 19.283 11.7613 19.1982 12.0112C19.1134 12.2612 19.1201 12.5067 19.2183 12.7478C19.3165 12.9888 19.5263 13.1584 19.8477 13.2566ZM31.6455 13.2566C31.9669 13.1584 32.1767 12.9888 32.2749 12.7478C32.3731 12.5067 32.3798 12.2612 32.295 12.0112C32.2102 11.7613 32.0517 11.5671 31.8196 11.4287C31.5875 11.2903 31.3063 11.2792 30.976 11.3952L29.918 11.8238C29.2574 12.0559 28.7753 12.4063 28.4718 12.875C28.1682 13.3437 28.0566 13.9039 28.137 14.5556L28.2307 15.2386L30.1993 15.252L30.0386 14.569C29.985 14.3369 30.0162 14.1405 30.1323 13.9798C30.2484 13.8191 30.4492 13.6896 30.7349 13.5914L31.6455 13.2566ZM18.6291 19.1622C18.6291 19.5193 18.7117 19.8385 18.8768 20.1197C19.042 20.4009 19.3388 20.6398 19.7674 20.8362C20.4994 21.1754 21.3944 21.4432 22.4523 21.6397C23.5102 21.8361 24.6061 21.9343 25.7399 21.9343C26.8826 21.9343 27.983 21.8361 29.0409 21.6397C30.0988 21.4432 30.9938 21.1754 31.7259 20.8362C32.1544 20.6398 32.4512 20.4009 32.6164 20.1197C32.7816 19.8385 32.8641 19.5193 32.8641 19.1622C32.8641 18.1802 32.5695 17.2897 31.9803 16.4907C31.3911 15.6916 30.5631 15.0555 29.4962 14.5824C28.4294 14.1092 27.1773 13.8726 25.7399 13.8726C24.3115 13.8726 23.0639 14.1092 21.997 14.5824C20.9302 15.0555 20.1021 15.6916 19.5129 16.4907C18.9237 17.2897 18.6291 18.1802 18.6291 19.1622ZM13.9823 30.9735C13.9823 33.1339 14.3773 35.0645 15.1674 36.7652C15.9575 38.4659 17.0645 39.8497 18.4885 40.9166C19.9124 41.9834 21.5841 42.6374 23.5036 42.8784C23.9589 42.932 24.3003 42.8806 24.528 42.7244C24.7556 42.5682 24.8695 42.316 24.8695 41.9678L24.8695 26.7284C24.8695 26.4873 24.9543 26.282 25.1239 26.1124C25.2935 25.9428 25.4989 25.8579 25.7399 25.8579C25.981 25.8579 26.1885 25.9428 26.3626 26.1124C26.5367 26.282 26.6237 26.4873 26.6237 26.7284L26.6237 41.9678C26.6237 42.316 26.7376 42.5682 26.9652 42.7244C27.1929 42.8806 27.5344 42.932 27.9897 42.8784C29.9091 42.6374 31.5808 41.9834 33.0047 40.9166C34.4287 39.8497 35.5357 38.4659 36.3258 36.7652C37.1159 35.0645 37.511 33.1339 37.511 30.9735C37.511 30.0093 37.3949 28.9826 37.1628 27.8934C36.9307 26.8043 36.6048 25.7888 36.1852 24.8469C35.7656 23.905 35.2701 23.1663 34.6988 22.6306C34.2613 22.2289 33.8997 22.0035 33.6141 21.9544C33.3284 21.9052 33.0605 21.9343 32.8106 22.0414C31.8196 22.4878 30.7171 22.8404 29.5029 23.0993C28.2887 23.3582 27.0344 23.4877 25.7399 23.4877C24.4543 23.4877 23.2045 23.3582 21.9903 23.0993C20.7762 22.8404 19.6736 22.4878 18.6826 22.0414C18.4327 21.9343 18.1648 21.9052 17.8792 21.9544C17.5935 22.0035 17.2319 22.2289 16.7945 22.6306C16.2231 23.1663 15.7276 23.905 15.308 24.8469C14.8884 25.7888 14.5626 26.8043 14.3304 27.8934C14.0983 28.9826 13.9823 30.0093 13.9823 30.9735ZM20.5307 28.4291C20.0575 28.4291 19.6535 28.2572 19.3187 27.9135C18.984 27.5698 18.8166 27.1658 18.8166 26.7016C18.8166 26.2284 18.984 25.8222 19.3187 25.483C19.6535 25.1437 20.0575 24.9741 20.5307 24.9741C21.0038 24.9741 21.41 25.1437 21.7493 25.483C22.0885 25.8222 22.2582 26.2284 22.2582 26.7016C22.2582 27.1658 22.0885 27.5698 21.7493 27.9135C21.41 28.2572 21.0038 28.4291 20.5307 28.4291ZM19.0978 34.1874C18.5443 34.1874 18.0711 33.991 17.6783 33.5982C17.2855 33.2054 17.0891 32.7277 17.0891 32.1653C17.0891 31.6207 17.2855 31.152 17.6783 30.7592C18.0711 30.3664 18.5443 30.17 19.0978 30.17C19.6424 30.17 20.1133 30.3664 20.5106 30.7592C20.9079 31.152 21.1065 31.6207 21.1065 32.1653C21.1065 32.7277 20.9079 33.2054 20.5106 33.5982C20.1133 33.991 19.6424 34.1874 19.0978 34.1874ZM20.7985 39.0886C20.3878 39.0886 20.0396 38.9458 19.754 38.6601C19.4683 38.3744 19.3254 38.0263 19.3254 37.6156C19.3254 37.2049 19.4683 36.8567 19.754 36.5711C20.0396 36.2854 20.3878 36.1425 20.7985 36.1425C21.2092 36.1425 21.5596 36.2854 21.8497 36.5711C22.1399 36.8567 22.2849 37.2049 22.2849 37.6156C22.2849 38.0263 22.1399 38.3744 21.8497 38.6601C21.5596 38.9458 21.2092 39.0886 20.7985 39.0886ZM30.9626 28.4291C30.4894 28.4291 30.0832 28.2572 29.7439 27.9135C29.4047 27.5698 29.2351 27.1658 29.2351 26.7016C29.2351 26.2284 29.4047 25.8222 29.7439 25.483C30.0832 25.1437 30.4894 24.9741 30.9626 24.9741C31.4357 24.9741 31.8397 25.1437 32.1745 25.483C32.5093 25.8222 32.6767 26.2284 32.6767 26.7016C32.6767 27.1658 32.5093 27.5698 32.1745 27.9135C31.8397 28.2572 31.4357 28.4291 30.9626 28.4291ZM32.3954 34.1874C31.8419 34.1874 31.3688 33.991 30.976 33.5982C30.5831 33.2054 30.3867 32.7277 30.3867 32.1653C30.3867 31.6207 30.5831 31.152 30.976 30.7592C31.3688 30.3664 31.8419 30.17 32.3954 30.17C32.949 30.17 33.4221 30.3664 33.8149 30.7592C34.2077 31.152 34.4042 31.6207 34.4042 32.1653C34.4042 32.7277 34.2077 33.2054 33.8149 33.5982C33.4221 33.991 32.949 34.1874 32.3954 34.1874ZM30.6947 39.0886C30.2841 39.0886 29.9337 38.9458 29.6435 38.6601C29.3534 38.3744 29.2083 38.0263 29.2083 37.6156C29.2083 37.2049 29.3534 36.8567 29.6435 36.5711C29.9337 36.2854 30.2841 36.1425 30.6947 36.1425C31.1054 36.1425 31.4536 36.2854 31.7393 36.5711C32.0249 36.8567 32.1678 37.2049 32.1678 37.6156C32.1678 38.0263 32.0249 38.3744 31.7393 38.6601C31.4536 38.9458 31.1054 39.0886 30.6947 39.0886ZM17.3971 22.8984L14.9063 20.796C14.6563 20.5817 14.3862 20.4701 14.0961 20.4612C13.8059 20.4523 13.5582 20.5683 13.3529 20.8094C13.1475 21.0594 13.0761 21.3294 13.1386 21.6196C13.2011 21.9097 13.3529 22.1575 13.5939 22.3628L16.1115 24.4786L17.3971 22.8984ZM14.9598 29.2326L11.6656 29.2326C11.3352 29.2326 11.0696 29.3263 10.8688 29.5138C10.6679 29.7013 10.5675 29.9512 10.5675 30.2637C10.5675 30.5673 10.6679 30.8128 10.8688 31.0002C11.0696 31.1877 11.3397 31.2815 11.6789 31.2815L14.9598 31.2681L14.9598 29.2326ZM16.0445 37.0665L13.5404 39.1556C13.2993 39.3609 13.1498 39.6087 13.0917 39.8988C13.0337 40.189 13.1074 40.4546 13.3127 40.6956C13.518 40.9456 13.7658 41.0661 14.0559 41.0572C14.3461 41.0483 14.6161 40.9367 14.8661 40.7224L17.3301 38.6333L16.0445 37.0665ZM34.0961 22.8984L35.3817 24.4786L37.8993 22.3628C38.1404 22.1575 38.2899 21.9097 38.3479 21.6196C38.4059 21.3294 38.3368 21.0594 38.1404 20.8094C37.935 20.5683 37.6873 20.4523 37.3971 20.4612C37.107 20.4701 36.8369 20.5817 36.5869 20.796L34.0961 22.8984ZM36.5334 29.2326L36.5334 31.2681L39.8143 31.2815C40.1535 31.2815 40.4236 31.1877 40.6245 31.0002C40.8253 30.8128 40.9258 30.5673 40.9258 30.2637C40.9258 29.9512 40.8253 29.7013 40.6245 29.5138C40.4236 29.3263 40.158 29.2326 39.8277 29.2326L36.5334 29.2326ZM35.4487 37.0665L34.1497 38.6333L36.6271 40.7224C36.8771 40.9367 37.1472 41.0483 37.4373 41.0572C37.7274 41.0661 37.9752 40.9456 38.1805 40.6956C38.3859 40.4546 38.4595 40.189 38.4015 39.8988C38.3435 39.6087 38.1895 39.3609 37.9395 39.1556L35.4487 37.0665Z" fill="#ff3b30" opacity="1" stroke="none"/>
</g>
</svg>
