<?xml version="1.0" encoding="UTF-8" standalone="no"?>
<!DOCTYPE svg PUBLIC "-//W3C//DTD SVG 1.1//EN" "http://www.w3.org/Graphics/SVG/1.1/DTD/svg11.dtd">
<!-- Created with Vectornator (http://vectornator.io/) -->
<svg height="100%" stroke-miterlimit="10" style="fill-rule:nonzero;clip-rule:evenodd;stroke-linecap:round;stroke-linejoin:round;" version="1.1" viewBox="0 0 228.124 56.9015" width="100%" xml:space="preserve" xmlns="http://www.w3.org/2000/svg" xmlns:xlink="http://www.w3.org/1999/xlink">
<defs>
<clipPath id="TextBounds">
<rect height="1" width="0" x="131.08" y="275.891"/>
</clipPath>
<clipPath id="TextBounds_2">
<rect height="32.5367" width="247.176" x="45.3158" y="13.7335"/>
</clipPath>
<clipPath id="TextBounds_3">
<rect height="33.7286" width="39.6657" x="5.85552" y="12.4791"/>
</clipPath>
</defs>
<clipPath id="ArtboardFrame">
<rect height="56.9015" width="228.124" x="0" y="0"/>
</clipPath>
<g clip-path="url(#ArtboardFrame)" id="Layer-1">
<g fill="#ff0000" opacity="1" stroke="none"/>
<g fill="#0b84fe" opacity="1" stroke="none">
<path clip-path="url(#TextBounds_2)" d="M48.9718 38.5612L48.9718 18.9294L57.6762 18.9294C59.426 18.9294 60.7562 19.1057 61.6668 19.4583C62.5774 19.811 63.305 20.4337 63.8496 21.3264C64.3942 22.2192 64.6665 23.2057 64.6665 24.2859C64.6665 25.6786 64.2157 26.8526 63.314 27.8079C62.4123 28.7631 61.0196 29.3702 59.1359 29.6291C59.8233 29.9594 60.3455 30.2853 60.7026 30.6067C61.4615 31.303 62.1802 32.1735 62.8587 33.218L66.2735 38.5612L63.006 38.5612L60.408 34.4768C59.6492 33.2983 59.0243 32.3967 58.5332 31.7717C58.0422 31.1468 57.6025 30.7093 57.2142 30.4594C56.8258 30.2094 56.4308 30.0353 56.0291 29.9371C55.7344 29.8746 55.2523 29.8434 54.5828 29.8434L51.5697 29.8434L51.5697 38.5612L48.9718 38.5612ZM51.5697 27.5936L57.1539 27.5936C58.3413 27.5936 59.2698 27.4709 59.9393 27.2253C60.6089 26.9798 61.1178 26.587 61.466 26.0469C61.8141 25.5068 61.9882 24.9198 61.9882 24.2859C61.9882 23.3575 61.6512 22.5942 60.9772 21.996C60.3031 21.3979 59.2385 21.0988 57.7833 21.0988L51.5697 21.0988L51.5697 27.5936Z"/>
<path clip-path="url(#TextBounds_2)" d="M78.165 33.9813L80.6558 34.2893C80.263 35.7445 79.5354 36.8738 78.473 37.6773C77.4107 38.4808 76.0537 38.8826 74.4021 38.8826C72.3219 38.8826 70.6725 38.242 69.4539 36.9609C68.2353 35.6798 67.626 33.8831 67.626 31.5709C67.626 29.1783 68.242 27.3213 69.474 26C70.706 24.6787 72.3041 24.0181 74.2681 24.0181C76.1697 24.0181 77.7231 24.6654 78.9283 25.9599C80.1336 27.2544 80.7362 29.0756 80.7362 31.4235C80.7362 31.5664 80.7317 31.7807 80.7228 32.0663L70.1168 32.0663C70.2061 33.6287 70.648 34.825 71.4426 35.6552C72.2371 36.4855 73.2281 36.9006 74.4154 36.9006C75.2993 36.9006 76.0537 36.6685 76.6786 36.2043C77.3035 35.74 77.799 34.9991 78.165 33.9813ZM70.2507 30.0844L78.1918 30.0844C78.0847 28.8881 77.7811 27.9909 77.2812 27.3927C76.5134 26.4643 75.518 26 74.2949 26C73.1879 26 72.2572 26.3705 71.5028 27.1115C70.7484 27.8525 70.3311 28.8435 70.2507 30.0844Z"/>
<path clip-path="url(#TextBounds_2)" d="M92.7483 44.0115L92.7483 37.0479C92.3733 37.5747 91.8488 38.0121 91.1748 38.3603C90.5007 38.7085 89.7843 38.8826 89.0255 38.8826C87.3381 38.8826 85.8852 38.2085 84.6666 36.8605C83.4479 35.5124 82.8386 33.6644 82.8386 31.3164C82.8386 29.888 83.0864 28.6069 83.5819 27.4731C84.0773 26.3393 84.796 25.48 85.7379 24.8952C86.6797 24.3105 87.7131 24.0181 88.838 24.0181C90.5967 24.0181 91.9805 24.7591 92.9893 26.2411L92.9893 24.3395L95.1587 24.3395L95.1587 44.0115L92.7483 44.0115ZM85.316 31.4102C85.316 33.2403 85.6999 34.6129 86.4677 35.528C87.2355 36.4431 88.155 36.9006 89.2263 36.9006C90.253 36.9006 91.1368 36.4654 91.8778 35.595C92.6188 34.7245 92.9893 33.401 92.9893 31.6244C92.9893 29.7318 92.5987 28.3078 91.8176 27.3526C91.0364 26.3973 90.1191 25.9197 89.0656 25.9197C88.0211 25.9197 87.135 26.3638 86.4074 27.2521C85.6798 28.1404 85.316 29.5264 85.316 31.4102Z"/>
<path clip-path="url(#TextBounds_2)" d="M108.256 38.5612L108.256 36.4721C107.148 38.0791 105.644 38.8826 103.743 38.8826C102.903 38.8826 102.12 38.7219 101.392 38.4005C100.665 38.0791 100.125 37.6751 99.7721 37.1885C99.4194 36.702 99.1717 36.1061 99.0288 35.4008C98.9306 34.9276 98.8815 34.1777 98.8815 33.151L98.8815 24.3395L101.292 24.3395L101.292 32.227C101.292 33.4858 101.341 34.3339 101.439 34.7714C101.591 35.4053 101.912 35.903 102.403 36.2645C102.894 36.6261 103.502 36.8069 104.225 36.8069C104.948 36.8069 105.626 36.6216 106.26 36.2511C106.894 35.8807 107.343 35.3762 107.606 34.7379C107.869 34.0996 108.001 33.1734 108.001 31.9592L108.001 24.3395L110.412 24.3395L110.412 38.5612L108.256 38.5612Z"/>
<path clip-path="url(#TextBounds_2)" d="M123.923 33.9813L126.414 34.2893C126.021 35.7445 125.294 36.8738 124.231 37.6773C123.169 38.4808 121.812 38.8826 120.16 38.8826C118.08 38.8826 116.431 38.242 115.212 36.9609C113.994 35.6798 113.384 33.8831 113.384 31.5709C113.384 29.1783 114 27.3213 115.232 26C116.464 24.6787 118.062 24.0181 120.027 24.0181C121.928 24.0181 123.482 24.6654 124.687 25.9599C125.892 27.2544 126.495 29.0756 126.495 31.4235C126.495 31.5664 126.49 31.7807 126.481 32.0663L115.875 32.0663C115.964 33.6287 116.406 34.825 117.201 35.6552C117.996 36.4855 118.986 36.9006 120.174 36.9006C121.058 36.9006 121.812 36.6685 122.437 36.2043C123.062 35.74 123.557 34.9991 123.923 33.9813ZM116.009 30.0844L123.95 30.0844C123.843 28.8881 123.54 27.9909 123.04 27.3927C122.272 26.4643 121.276 26 120.053 26C118.946 26 118.016 26.3705 117.261 27.1115C116.507 27.8525 116.089 28.8435 116.009 30.0844Z"/>
<path clip-path="url(#TextBounds_2)" d="M128.477 34.3161L130.86 33.9411C130.994 34.8964 131.367 35.6284 131.978 36.1373C132.59 36.6462 133.445 36.9006 134.543 36.9006C135.65 36.9006 136.471 36.6752 137.007 36.2244C137.542 35.7735 137.81 35.2446 137.81 34.6375C137.81 34.0929 137.574 33.6644 137.101 33.3519C136.77 33.1376 135.949 32.8654 134.637 32.535C132.869 32.0887 131.644 31.7025 130.961 31.3767C130.278 31.0508 129.76 30.6 129.407 30.0241C129.055 29.4483 128.878 28.8122 128.878 28.1159C128.878 27.482 129.023 26.895 129.313 26.3549C129.604 25.8148 129.999 25.3662 130.499 25.0091C130.874 24.7323 131.385 24.498 132.032 24.306C132.679 24.1141 133.373 24.0181 134.114 24.0181C135.23 24.0181 136.21 24.1788 137.054 24.5002C137.897 24.8216 138.52 25.2568 138.922 25.8059C139.324 26.3549 139.6 27.0892 139.752 28.0087L137.395 28.3301C137.288 27.5981 136.978 27.0267 136.464 26.616C135.951 26.2054 135.226 26 134.288 26C133.181 26 132.391 26.183 131.918 26.5491C131.445 26.9151 131.208 27.3436 131.208 27.8347C131.208 28.1471 131.307 28.4283 131.503 28.6783C131.699 28.9372 132.007 29.1515 132.427 29.3211C132.668 29.4104 133.378 29.6157 134.556 29.9371C136.261 30.3924 137.451 30.7651 138.125 31.0553C138.799 31.3454 139.328 31.7673 139.712 32.3208C140.096 32.8743 140.288 33.5617 140.288 34.383C140.288 35.1865 140.053 35.9431 139.585 36.6529C139.116 37.3626 138.44 37.9117 137.556 38.3C136.672 38.6884 135.672 38.8826 134.556 38.8826C132.708 38.8826 131.3 38.4987 130.331 37.7309C129.363 36.9631 128.744 35.8249 128.477 34.3161Z"/>
<path clip-path="url(#TextBounds_2)" d="M148.416 36.4051L148.764 38.5344C148.086 38.6772 147.479 38.7486 146.943 38.7486C146.068 38.7486 145.39 38.6103 144.908 38.3335C144.426 38.0568 144.086 37.693 143.89 37.2421C143.694 36.7913 143.595 35.8427 143.595 34.3964L143.595 26.2143L141.828 26.2143L141.828 24.3395L143.595 24.3395L143.595 20.8176L145.992 19.3713L145.992 24.3395L148.416 24.3395L148.416 26.2143L145.992 26.2143L145.992 34.5304C145.992 35.2178 146.035 35.6597 146.12 35.8561C146.205 36.0525 146.343 36.2087 146.535 36.3248C146.727 36.4409 147.001 36.4989 147.358 36.4989C147.626 36.4989 147.979 36.4676 148.416 36.4051Z"/>
<path clip-path="url(#TextBounds_2)" d="M158.781 38.5612L158.781 18.9294L161.379 18.9294L161.379 26.991L171.583 26.991L171.583 18.9294L174.181 18.9294L174.181 38.5612L171.583 38.5612L171.583 29.3077L161.379 29.3077L161.379 38.5612L158.781 38.5612Z"/>
<path clip-path="url(#TextBounds_2)" d="M187.479 36.8069C186.586 37.5657 185.727 38.1014 184.901 38.4139C184.075 38.7263 183.189 38.8826 182.243 38.8826C180.681 38.8826 179.48 38.5009 178.641 37.7376C177.802 36.9743 177.382 35.9989 177.382 34.8116C177.382 34.1152 177.54 33.4791 177.857 32.9033C178.174 32.3275 178.589 31.8655 179.103 31.5173C179.616 31.1691 180.194 30.9057 180.837 30.7272C181.31 30.6022 182.024 30.4817 182.98 30.3656C184.926 30.1335 186.359 29.8568 187.278 29.5354C187.287 29.205 187.292 28.9952 187.292 28.906C187.292 27.9239 187.064 27.232 186.609 26.8303C185.993 26.2857 185.078 26.0134 183.863 26.0134C182.73 26.0134 181.893 26.2121 181.352 26.6093C180.812 27.0066 180.413 27.7097 180.154 28.7185L177.797 28.3971C178.011 27.3883 178.364 26.5736 178.855 25.9532C179.346 25.3327 180.056 24.8551 180.984 24.5203C181.913 24.1855 182.988 24.0181 184.212 24.0181C185.426 24.0181 186.412 24.1609 187.171 24.4466C187.93 24.7323 188.488 25.0916 188.845 25.5246C189.202 25.9576 189.452 26.5044 189.595 27.1651C189.675 27.5758 189.715 28.3167 189.715 29.3881L189.715 32.602C189.715 34.8428 189.767 36.2601 189.869 36.8538C189.972 37.4474 190.175 38.0166 190.479 38.5612L187.961 38.5612C187.711 38.0612 187.55 37.4765 187.479 36.8069ZM187.278 31.4235C186.403 31.7807 185.091 32.0842 183.341 32.3342C182.35 32.477 181.649 32.6377 181.239 32.8163C180.828 32.9948 180.511 33.2559 180.288 33.5997C180.065 33.9434 179.953 34.325 179.953 34.7446C179.953 35.3874 180.196 35.9231 180.683 36.3516C181.169 36.7801 181.881 36.9944 182.819 36.9944C183.747 36.9944 184.573 36.7913 185.296 36.3851C186.019 35.9789 186.551 35.4231 186.89 34.7178C187.149 34.1732 187.278 33.3698 187.278 32.3074L187.278 31.4235Z"/>
<path clip-path="url(#TextBounds_2)" d="M202.732 33.3519L205.102 33.6599C204.843 35.2937 204.18 36.5725 203.113 37.4965C202.047 38.4206 200.737 38.8826 199.183 38.8826C197.237 38.8826 195.672 38.2465 194.489 36.9743C193.307 35.7021 192.715 33.8786 192.715 31.5039C192.715 29.9683 192.969 28.6247 193.478 27.4731C193.987 26.3214 194.762 25.4577 195.802 24.8818C196.842 24.306 197.973 24.0181 199.196 24.0181C200.741 24.0181 202.004 24.4087 202.986 25.1899C203.968 25.971 204.598 27.0803 204.874 28.5176L202.531 28.8792C202.308 27.9239 201.913 27.2053 201.346 26.7232C200.779 26.2411 200.094 26 199.29 26C198.076 26 197.09 26.4353 196.331 27.3057C195.572 28.1761 195.192 29.5532 195.192 31.4369C195.192 33.3474 195.559 34.7357 196.291 35.6017C197.023 36.4676 197.978 36.9006 199.156 36.9006C200.103 36.9006 200.893 36.6105 201.527 36.0302C202.16 35.4499 202.562 34.5571 202.732 33.3519Z"/>
<path clip-path="url(#TextBounds_2)" d="M207.178 38.5612L207.178 18.9294L209.588 18.9294L209.588 30.1246L215.293 24.3395L218.413 24.3395L212.976 29.6157L218.962 38.5612L215.989 38.5612L211.289 31.2896L209.588 32.9234L209.588 38.5612L207.178 38.5612Z"/>
</g>
<path d="M8.68908 2.05056L218.056 2.05056C222.022 2.05056 225.236 5.26515 225.236 9.23056L225.236 47.2208C225.236 51.1862 222.022 54.4008 218.056 54.4008L8.68908 54.4008C4.72368 54.4008 1.50908 51.1862 1.50908 47.2208L1.50908 9.23056C1.50908 5.26515 4.72368 2.05056 8.68908 2.05056Z" fill="none" opacity="1" stroke="#0b84fe" stroke-linecap="butt" stroke-linejoin="round" stroke-width="1.99352"/>
<path clip-path="url(#TextBounds_3)" d="M18.7248 43.7212C18.9926 43.7212 19.2359 43.6521 19.4546 43.5137C19.6734 43.3753 19.9434 43.1588 20.2648 42.8642L25.0991 38.445L34.1517 38.4584C35.4819 38.4584 36.6023 38.2196 37.513 37.742C38.4236 37.2644 39.1132 36.5702 39.5819 35.6596C40.0506 34.749 40.285 33.6375 40.285 32.3252L40.285 22.0673C40.285 20.755 40.0506 19.6435 39.5819 18.7329C39.1132 17.8223 38.4236 17.1282 37.513 16.6505C36.6023 16.1729 35.4819 15.9341 34.1517 15.9341L16.9036 15.9341C15.5734 15.9341 14.453 16.1729 13.5423 16.6505C12.6317 17.1282 11.9421 17.8223 11.4734 18.7329C11.0047 19.6435 10.7703 20.755 10.7703 22.0673L10.7703 32.3252C10.7703 33.6375 11.0047 34.749 11.4734 35.6596C11.9421 36.5702 12.6317 37.2621 13.5423 37.7353C14.453 38.2084 15.5734 38.445 16.9036 38.445L17.533 38.445L17.533 42.3419C17.533 42.7615 17.6357 43.0963 17.841 43.3463C18.0463 43.5963 18.3409 43.7212 18.7248 43.7212ZM19.0864 27.1963C19.0864 26.8481 19.198 26.5646 19.4212 26.3459C19.6444 26.1272 19.93 26.0178 20.2782 26.0178L24.376 26.0178L24.376 21.92C24.376 21.5719 24.4809 21.2862 24.6907 21.063C24.9005 20.8398 25.175 20.7282 25.5143 20.7282C25.8624 20.7282 26.1459 20.8398 26.3646 21.063C26.5833 21.2862 26.6927 21.5719 26.6927 21.92L26.6927 26.0178L30.8039 26.0178C31.1431 26.0178 31.4243 26.1272 31.6475 26.3459C31.8707 26.5646 31.9823 26.8481 31.9823 27.1963C31.9823 27.5355 31.8707 27.81 31.6475 28.0198C31.4243 28.2296 31.1431 28.3345 30.8039 28.3345L26.6927 28.3345L26.6927 32.4457C26.6927 32.7939 26.5833 33.0773 26.3646 33.296C26.1459 33.5148 25.8624 33.6241 25.5143 33.6241C25.175 33.6241 24.9005 33.5125 24.6907 33.2893C24.4809 33.0661 24.376 32.7849 24.376 32.4457L24.376 28.3345L20.2782 28.3345C19.93 28.3345 19.6444 28.2296 19.4212 28.0198C19.198 27.81 19.0864 27.5355 19.0864 27.1963Z" fill="#0b84fe" opacity="1" stroke="none"/>
</g>
</svg>
