<?xml version="1.0" encoding="UTF-8" standalone="no"?>
<!DOCTYPE svg PUBLIC "-//W3C//DTD SVG 1.1//EN" "http://www.w3.org/Graphics/SVG/1.1/DTD/svg11.dtd">
<!-- Created with Vectornator (http://vectornator.io/) -->
<svg height="100%" stroke-miterlimit="10" style="fill-rule:nonzero;clip-rule:evenodd;stroke-linecap:round;stroke-linejoin:round;" version="1.1" viewBox="0 0 253.952 56.9015" width="100%" xml:space="preserve" xmlns="http://www.w3.org/2000/svg" xmlns:xlink="http://www.w3.org/1999/xlink">
<defs>
<clipPath id="TextBounds">
<rect height="1" width="0" x="131.08" y="275.891"/>
</clipPath>
<clipPath id="TextBounds_2">
<rect height="32.5367" width="247.176" x="45.3158" y="13.7335"/>
</clipPath>
<clipPath id="TextBounds_3">
<rect height="9.99121" width="32.093" x="324.538" y="-30.0972"/>
</clipPath>
</defs>
<clipPath id="ArtboardFrame">
<rect height="56.9015" width="253.952" x="0" y="0"/>
</clipPath>
<g clip-path="url(#ArtboardFrame)" id="Layer-1">
<g fill="#5856d6" opacity="1" stroke="none"/>
<g opacity="1">
<g fill="#5856d6" opacity="1" stroke="none">
<path clip-path="url(#TextBounds_2)" d="M48.0478 32.2538L50.4984 32.0396C50.6145 33.0216 50.8845 33.8273 51.3086 34.4567C51.7326 35.0861 52.3911 35.595 53.2838 35.9833C54.1766 36.3717 55.1809 36.5658 56.2969 36.5658C57.2878 36.5658 58.1627 36.4185 58.9216 36.1239C59.6804 35.8293 60.2451 35.4253 60.6156 34.912C60.9861 34.3987 61.1713 33.8385 61.1713 33.2314C61.1713 32.6154 60.9928 32.0775 60.6357 31.6177C60.2786 31.158 59.6894 30.7718 58.868 30.4594C58.3413 30.254 57.1762 29.9349 55.3729 29.5019C53.5695 29.0689 52.3062 28.6605 51.5831 28.2766C50.6457 27.7856 49.9471 27.1762 49.4874 26.4486C49.0276 25.721 48.7977 24.9064 48.7977 24.0047C48.7977 23.0137 49.0789 22.0875 49.6414 21.226C50.2038 20.3645 51.0251 19.7105 52.1054 19.2642C53.1856 18.8178 54.3864 18.5946 55.7077 18.5946C57.1629 18.5946 58.4462 18.8289 59.5577 19.2976C60.6692 19.7663 61.524 20.456 62.1221 21.3666C62.7203 22.2772 63.0417 23.3084 63.0863 24.46L60.5955 24.6475C60.4616 23.4066 60.0085 22.4692 59.2363 21.8353C58.4641 21.2014 57.3236 20.8845 55.8148 20.8845C54.2435 20.8845 53.0986 21.1724 52.3799 21.7483C51.6612 22.3241 51.3019 23.0182 51.3019 23.8306C51.3019 24.5359 51.5563 25.1162 52.0652 25.5715C52.5651 26.0268 53.8708 26.4933 55.9822 26.9709C58.0936 27.4485 59.5421 27.8659 60.3277 28.223C61.4704 28.7497 62.3141 29.4171 62.8587 30.225C63.4032 31.033 63.6755 31.9637 63.6755 33.0171C63.6755 34.0617 63.3765 35.0459 62.7783 35.9699C62.1802 36.8939 61.3209 37.6126 60.2005 38.1259C59.0801 38.6393 57.819 38.8959 56.4174 38.8959C54.6408 38.8959 53.1521 38.637 51.9514 38.1192C50.7506 37.6014 49.8087 36.8225 49.1258 35.7824C48.4428 34.7424 48.0835 33.5662 48.0478 32.2538Z"/>
<path clip-path="url(#TextBounds_2)" d="M76.2367 38.5612L76.2367 36.4721C75.1296 38.0791 73.6253 38.8826 71.7238 38.8826C70.8846 38.8826 70.1012 38.7219 69.3736 38.4005C68.646 38.0791 68.1059 37.6751 67.7532 37.1885C67.4006 36.702 67.1528 36.1061 67.01 35.4008C66.9118 34.9276 66.8627 34.1777 66.8627 33.151L66.8627 24.3395L69.2731 24.3395L69.2731 32.227C69.2731 33.4858 69.3222 34.3339 69.4204 34.7714C69.5722 35.4053 69.8936 35.903 70.3846 36.2645C70.8756 36.6261 71.4827 36.8069 72.2059 36.8069C72.929 36.8069 73.6075 36.6216 74.2414 36.2511C74.8752 35.8807 75.3238 35.3762 75.5872 34.7379C75.8506 34.0996 75.9822 33.1734 75.9822 31.9592L75.9822 24.3395L78.3927 24.3395L78.3927 38.5612L76.2367 38.5612Z"/>
<path clip-path="url(#TextBounds_2)" d="M82.1691 44.0115L82.1691 24.3395L84.3653 24.3395L84.3653 26.1875C84.8831 25.4644 85.4678 24.922 86.1195 24.5605C86.7712 24.1989 87.5613 24.0181 88.4898 24.0181C89.704 24.0181 90.7753 24.3306 91.7037 24.9555C92.6322 25.5804 93.333 26.462 93.8062 27.6003C94.2794 28.7386 94.5159 29.9862 94.5159 31.3432C94.5159 32.7984 94.2548 34.1085 93.7325 35.2736C93.2103 36.4386 92.4514 37.3314 91.456 37.9519C90.4606 38.5723 89.4138 38.8826 88.3157 38.8826C87.5122 38.8826 86.7913 38.7129 86.153 38.3737C85.5147 38.0344 84.9902 37.6059 84.5795 37.0881L84.5795 44.0115L82.1691 44.0115ZM84.3519 31.5307C84.3519 33.3608 84.7224 34.7134 85.4633 35.5883C86.2043 36.4632 87.1016 36.9006 88.155 36.9006C89.2263 36.9006 90.1436 36.4476 90.9069 35.5414C91.6703 34.6353 92.0519 33.2314 92.0519 31.3298C92.0519 29.5175 91.6792 28.1605 90.9337 27.2588C90.1883 26.3571 89.2977 25.9063 88.2621 25.9063C87.2355 25.9063 86.3271 26.3861 85.537 27.3459C84.7469 28.3056 84.3519 29.7005 84.3519 31.5307Z"/>
<path clip-path="url(#TextBounds_2)" d="M97.4219 44.0115L97.4219 24.3395L99.6181 24.3395L99.6181 26.1875C100.136 25.4644 100.721 24.922 101.372 24.5605C102.024 24.1989 102.814 24.0181 103.743 24.0181C104.957 24.0181 106.028 24.3306 106.957 24.9555C107.885 25.5804 108.586 26.462 109.059 27.6003C109.532 28.7386 109.769 29.9862 109.769 31.3432C109.769 32.7984 109.508 34.1085 108.985 35.2736C108.463 36.4386 107.704 37.3314 106.709 37.9519C105.713 38.5723 104.667 38.8826 103.569 38.8826C102.765 38.8826 102.044 38.7129 101.406 38.3737C100.767 38.0344 100.243 37.6059 99.8323 37.0881L99.8323 44.0115L97.4219 44.0115ZM99.6047 31.5307C99.6047 33.3608 99.9752 34.7134 100.716 35.5883C101.457 36.4632 102.354 36.9006 103.408 36.9006C104.479 36.9006 105.396 36.4476 106.16 35.5414C106.923 34.6353 107.305 33.2314 107.305 31.3298C107.305 29.5175 106.932 28.1605 106.187 27.2588C105.441 26.3571 104.551 25.9063 103.515 25.9063C102.488 25.9063 101.58 26.3861 100.79 27.3459C99.9997 28.3056 99.6047 29.7005 99.6047 31.5307Z"/>
<path clip-path="url(#TextBounds_2)" d="M111.777 31.4503C111.777 28.8167 112.51 26.866 113.974 25.5983C115.197 24.5448 116.688 24.0181 118.446 24.0181C120.402 24.0181 122 24.6587 123.24 25.9398C124.481 27.2209 125.102 28.9908 125.102 31.2495C125.102 33.0796 124.827 34.5192 124.278 35.5682C123.729 36.6172 122.93 37.4318 121.881 38.0121C120.832 38.5924 119.687 38.8826 118.446 38.8826C116.456 38.8826 114.846 38.2442 113.619 36.9676C112.391 35.6909 111.777 33.8519 111.777 31.4503ZM114.255 31.4503C114.255 33.2716 114.652 34.6353 115.447 35.5414C116.241 36.4476 117.241 36.9006 118.446 36.9006C119.643 36.9006 120.638 36.4453 121.433 35.5347C122.227 34.6241 122.624 33.2359 122.624 31.37C122.624 29.6112 122.225 28.2788 121.426 27.3726C120.627 26.4665 119.634 26.0134 118.446 26.0134C117.241 26.0134 116.241 26.4643 115.447 27.366C114.652 28.2676 114.255 29.6291 114.255 31.4503Z"/>
<path clip-path="url(#TextBounds_2)" d="M127.901 38.5612L127.901 24.3395L130.07 24.3395L130.07 26.4955C130.624 25.4867 131.135 24.8216 131.603 24.5002C132.072 24.1788 132.588 24.0181 133.15 24.0181C133.963 24.0181 134.788 24.277 135.628 24.7948L134.797 27.0312C134.208 26.683 133.619 26.5089 133.03 26.5089C132.503 26.5089 132.03 26.6674 131.61 26.9843C131.191 27.3012 130.891 27.7409 130.713 28.3034C130.445 29.1604 130.311 30.0978 130.311 31.1155L130.311 38.5612L127.901 38.5612Z"/>
<path clip-path="url(#TextBounds_2)" d="M142.323 36.4051L142.671 38.5344C141.993 38.6772 141.386 38.7486 140.85 38.7486C139.975 38.7486 139.297 38.6103 138.815 38.3335C138.333 38.0568 137.993 37.693 137.797 37.2421C137.601 36.7913 137.502 35.8427 137.502 34.3964L137.502 26.2143L135.735 26.2143L135.735 24.3395L137.502 24.3395L137.502 20.8176L139.899 19.3713L139.899 24.3395L142.323 24.3395L142.323 26.2143L139.899 26.2143L139.899 34.5304C139.899 35.2178 139.942 35.6597 140.027 35.8561C140.111 36.0525 140.25 36.2087 140.442 36.3248C140.634 36.4409 140.908 36.4989 141.265 36.4989C141.533 36.4989 141.886 36.4676 142.323 36.4051Z"/>
<path clip-path="url(#TextBounds_2)" d="M152.608 38.5612L152.608 18.9294L159.37 18.9294C160.897 18.9294 162.062 19.0231 162.866 19.2106C163.991 19.4695 164.95 19.9382 165.745 20.6167C166.78 21.4916 167.555 22.6098 168.068 23.9712C168.582 25.3327 168.838 26.8883 168.838 28.6381C168.838 30.129 168.664 31.4503 168.316 32.602C167.968 33.7537 167.521 34.7067 166.977 35.4611C166.432 36.2154 165.836 36.8091 165.189 37.2421C164.542 37.6751 163.761 38.0032 162.846 38.2264C161.93 38.4496 160.879 38.5612 159.692 38.5612L152.608 38.5612ZM155.206 36.2445L159.397 36.2445C160.692 36.2445 161.707 36.1239 162.444 35.8829C163.18 35.6418 163.767 35.3026 164.205 34.8651C164.821 34.2491 165.301 33.4211 165.644 32.381C165.988 31.341 166.16 30.0799 166.16 28.598C166.16 26.5446 165.823 24.9667 165.149 23.8641C164.475 22.7615 163.656 22.0228 162.692 21.6478C161.995 21.38 160.875 21.2461 159.33 21.2461L155.206 21.2461L155.206 36.2445Z"/>
<path clip-path="url(#TextBounds_2)" d="M172.119 21.7014L172.119 18.9294L174.53 18.9294L174.53 21.7014L172.119 21.7014ZM172.119 38.5612L172.119 24.3395L174.53 24.3395L174.53 38.5612L172.119 38.5612Z"/>
<path clip-path="url(#TextBounds_2)" d="M177.235 34.3161L179.618 33.9411C179.752 34.8964 180.125 35.6284 180.736 36.1373C181.348 36.6462 182.203 36.9006 183.301 36.9006C184.408 36.9006 185.229 36.6752 185.765 36.2244C186.301 35.7735 186.568 35.2446 186.568 34.6375C186.568 34.0929 186.332 33.6644 185.859 33.3519C185.528 33.1376 184.707 32.8654 183.395 32.535C181.627 32.0887 180.402 31.7025 179.719 31.3767C179.036 31.0508 178.518 30.6 178.165 30.0241C177.813 29.4483 177.636 28.8122 177.636 28.1159C177.636 27.482 177.781 26.895 178.072 26.3549C178.362 25.8148 178.757 25.3662 179.257 25.0091C179.632 24.7323 180.143 24.498 180.79 24.306C181.437 24.1141 182.131 24.0181 182.872 24.0181C183.988 24.0181 184.968 24.1788 185.812 24.5002C186.655 24.8216 187.278 25.2568 187.68 25.8059C188.082 26.3549 188.358 27.0892 188.51 28.0087L186.153 28.3301C186.046 27.5981 185.736 27.0267 185.223 26.616C184.709 26.2054 183.984 26 183.046 26C181.939 26 181.149 26.183 180.676 26.5491C180.203 26.9151 179.966 27.3436 179.966 27.8347C179.966 28.1471 180.065 28.4283 180.261 28.6783C180.457 28.9372 180.765 29.1515 181.185 29.3211C181.426 29.4104 182.136 29.6157 183.314 29.9371C185.019 30.3924 186.209 30.7651 186.883 31.0553C187.557 31.3454 188.086 31.7673 188.47 32.3208C188.854 32.8743 189.046 33.5617 189.046 34.383C189.046 35.1865 188.811 35.9431 188.343 36.6529C187.874 37.3626 187.198 37.9117 186.314 38.3C185.43 38.6884 184.43 38.8826 183.314 38.8826C181.466 38.8826 180.058 38.4987 179.089 37.7309C178.121 36.9631 177.502 35.8249 177.235 34.3161Z"/>
<path clip-path="url(#TextBounds_2)" d="M201.192 33.3519L203.562 33.6599C203.303 35.2937 202.64 36.5725 201.573 37.4965C200.507 38.4206 199.196 38.8826 197.643 38.8826C195.697 38.8826 194.132 38.2465 192.949 36.9743C191.767 35.7021 191.175 33.8786 191.175 31.5039C191.175 29.9683 191.429 28.6247 191.938 27.4731C192.447 26.3214 193.222 25.4577 194.262 24.8818C195.302 24.306 196.433 24.0181 197.656 24.0181C199.201 24.0181 200.464 24.4087 201.446 25.1899C202.428 25.971 203.058 27.0803 203.334 28.5176L200.991 28.8792C200.768 27.9239 200.373 27.2053 199.806 26.7232C199.239 26.2411 198.554 26 197.75 26C196.536 26 195.55 26.4353 194.791 27.3057C194.032 28.1761 193.652 29.5532 193.652 31.4369C193.652 33.3474 194.018 34.7357 194.751 35.6017C195.483 36.4676 196.438 36.9006 197.616 36.9006C198.563 36.9006 199.353 36.6105 199.987 36.0302C200.62 35.4499 201.022 34.5571 201.192 33.3519Z"/>
<path clip-path="url(#TextBounds_2)" d="M204.727 31.4503C204.727 28.8167 205.459 26.866 206.923 25.5983C208.146 24.5448 209.637 24.0181 211.396 24.0181C213.351 24.0181 214.949 24.6587 216.19 25.9398C217.431 27.2209 218.052 28.9908 218.052 31.2495C218.052 33.0796 217.777 34.5192 217.228 35.5682C216.679 36.6172 215.88 37.4318 214.831 38.0121C213.782 38.5924 212.637 38.8826 211.396 38.8826C209.405 38.8826 207.796 38.2442 206.568 36.9676C205.341 35.6909 204.727 33.8519 204.727 31.4503ZM207.205 31.4503C207.205 33.2716 207.602 34.6353 208.396 35.5414C209.191 36.4476 210.191 36.9006 211.396 36.9006C212.592 36.9006 213.588 36.4453 214.382 35.5347C215.177 34.6241 215.574 33.2359 215.574 31.37C215.574 29.6112 215.175 28.2788 214.376 27.3726C213.577 26.4665 212.583 26.0134 211.396 26.0134C210.191 26.0134 209.191 26.4643 208.396 27.366C207.602 28.2676 207.205 29.6291 207.205 31.4503Z"/>
<path clip-path="url(#TextBounds_2)" d="M220.85 38.5612L220.85 24.3395L223.02 24.3395L223.02 26.4955C223.573 25.4867 224.084 24.8216 224.553 24.5002C225.022 24.1788 225.537 24.0181 226.1 24.0181C226.912 24.0181 227.738 24.277 228.577 24.7948L227.747 27.0312C227.158 26.683 226.569 26.5089 225.979 26.5089C225.453 26.5089 224.979 26.6674 224.56 26.9843C224.14 27.3012 223.841 27.7409 223.663 28.3034C223.395 29.1604 223.261 30.0978 223.261 31.1155L223.261 38.5612L220.85 38.5612Z"/>
<path clip-path="url(#TextBounds_2)" d="M239.237 38.5612L239.237 36.7667C238.335 38.1773 237.009 38.8826 235.26 38.8826C234.126 38.8826 233.083 38.5701 232.133 37.9452C231.182 37.3202 230.445 36.4476 229.923 35.3271C229.401 34.2067 229.14 32.9189 229.14 31.4637C229.14 30.0442 229.376 28.7564 229.849 27.6003C230.323 26.4442 231.032 25.5581 231.979 24.9421C232.925 24.3261 233.983 24.0181 235.152 24.0181C236.009 24.0181 236.773 24.1989 237.442 24.5605C238.112 24.922 238.656 25.393 239.076 25.9732L239.076 18.9294L241.473 18.9294L241.473 38.5612L239.237 38.5612ZM231.617 31.4637C231.617 33.285 232.001 34.6464 232.769 35.5481C233.537 36.4498 234.443 36.9006 235.487 36.9006C236.541 36.9006 237.436 36.4699 238.172 35.6084C238.909 34.7468 239.277 33.4323 239.277 31.6646C239.277 29.7184 238.902 28.29 238.152 27.3793C237.402 26.4687 236.478 26.0134 235.38 26.0134C234.309 26.0134 233.414 26.4509 232.695 27.3258C231.976 28.2007 231.617 29.58 231.617 31.4637Z"/>
</g>
<path d="M8.68908 2.05056L243.893 2.05056C247.858 2.05056 251.073 5.26515 251.073 9.23056L251.073 47.2208C251.073 51.1862 247.858 54.4008 243.893 54.4008L8.68908 54.4008C4.72368 54.4008 1.50908 51.1862 1.50908 47.2208L1.50908 9.23056C1.50908 5.26515 4.72368 2.05056 8.68908 2.05056Z" fill="none" opacity="1" stroke="#5856d6" stroke-linecap="butt" stroke-linejoin="round" stroke-width="1.99352"/>
<g fill="#5856d6" opacity="1" stroke="none">
<path clip-path="url(#TextBounds_3)" d="M333.149-5.26956L333.149-22.5846L326.681-22.5846L326.681-24.9014L342.242-24.9014L342.242-22.5846L335.747-22.5846L335.747-5.26956L333.149-5.26956Z"/>
<path clip-path="url(#TextBounds_3)" d="M351.295-9.84942L353.785-9.54142C353.393-8.08622 352.665-6.95688 351.603-6.15339C350.54-5.34991 349.183-4.94817 347.532-4.94817C345.451-4.94817 343.802-5.58872 342.583-6.86983C341.365-8.15094 340.756-9.94762 340.756-12.2599C340.756-14.6525 341.372-16.5094 342.604-17.8307C343.836-19.152 345.434-19.8126 347.398-19.8126C349.299-19.8126 350.853-19.1654 352.058-17.8709C353.263-16.5764 353.866-14.7551 353.866-12.4072C353.866-12.2643 353.861-12.0501 353.852-11.7644L343.246-11.7644C343.336-10.2021 343.778-9.00576 344.572-8.1755C345.367-7.34523 346.358-6.9301 347.545-6.9301C348.429-6.9301 349.183-7.16221 349.808-7.62645C350.433-8.09068 350.929-8.83167 351.295-9.84942ZM343.38-13.7463L351.321-13.7463C351.214-14.9426 350.911-15.8398 350.411-16.438C349.643-17.3665 348.648-17.8307 347.424-17.8307C346.317-17.8307 345.387-17.4602 344.632-16.7192C343.878-15.9782 343.461-14.9873 343.38-13.7463Z"/>
<path clip-path="url(#TextBounds_3)" d="M326.239 27.6995L331.435 20.3075L326.628 13.4778L329.641 13.4778L331.823 16.8123C332.234 17.4462 332.564 17.9774 332.814 18.4059C333.207 17.8167 333.569 17.2944 333.899 16.8391L336.296 13.4778L339.175 13.4778L334.261 20.1735L339.55 27.6995L336.591 27.6995L333.672 23.2804L332.895 22.0885L329.159 27.6995L326.239 27.6995Z"/>
<path clip-path="url(#TextBounds_3)" d="M346.822 25.5435L347.17 27.6727C346.492 27.8156 345.884 27.887 345.349 27.887C344.474 27.887 343.795 27.7486 343.313 27.4719C342.831 27.1951 342.492 26.8313 342.296 26.3805C342.099 25.9296 342.001 24.9811 342.001 23.5348L342.001 15.3526L340.233 15.3526L340.233 13.4778L342.001 13.4778L342.001 9.95591L344.398 8.50964L344.398 13.4778L346.822 13.4778L346.822 15.3526L344.398 15.3526L344.398 23.6687C344.398 24.3561 344.44 24.798 344.525 24.9944C344.61 25.1909 344.748 25.3471 344.94 25.4631C345.132 25.5792 345.407 25.6372 345.764 25.6372C346.032 25.6372 346.384 25.606 346.822 25.5435Z"/>
</g>
</g>
<path d="M37.4942 19.1219C34.6447 16.8306 30.1369 16.4429 29.9454 16.4265C29.6445 16.401 29.3587 16.5716 29.236 16.847C29.227 16.865 29.1282 17.091 29.019 17.4427C30.9032 17.7599 33.2184 18.4005 35.3137 19.701C35.6489 19.9091 35.7522 20.3506 35.5442 20.6873C35.4095 20.9058 35.1745 21.0255 34.935 21.0255C34.8063 21.0255 34.6761 20.9911 34.5579 20.9178C30.9571 18.6848 26.4583 18.5726 25.5932 18.5726C24.7282 18.5726 20.2279 18.6848 16.6301 20.9178C16.2933 21.1273 15.8533 21.0225 15.6438 20.6873C15.4343 20.3506 15.5391 19.9106 15.8743 19.701C17.9695 18.402 20.2833 17.7599 22.169 17.4427C22.0583 17.0895 21.9595 16.865 21.952 16.847C21.8278 16.5716 21.5434 16.398 21.2411 16.428C21.051 16.4429 16.5433 16.8306 13.6548 19.1548C12.1463 20.5481 9.1306 28.7016 9.1306 35.7506C9.1306 35.8748 9.16352 35.9976 9.22488 36.1053C11.3067 39.7615 16.9848 40.7193 18.2793 40.7613C18.2868 40.7613 18.2943 40.7613 18.3018 40.7613C18.5308 40.7613 18.7463 40.652 18.881 40.4664L20.1905 38.6675C16.66 37.7546 14.8566 36.2056 14.7518 36.1143C14.4555 35.8524 14.4271 35.4004 14.689 35.1041C14.9509 34.8078 15.4014 34.7793 15.6977 35.0397C15.7411 35.0786 19.0621 37.8968 25.5932 37.8968C32.1364 37.8968 35.4574 35.0667 35.4903 35.0382C35.7866 34.7808 36.2386 34.8078 36.499 35.1056C36.7594 35.4019 36.731 35.8524 36.4361 36.1128C36.3314 36.2056 34.528 37.7531 30.9975 38.666L32.307 40.4649C32.4417 40.6505 32.6572 40.7598 32.8862 40.7598C32.8937 40.7598 32.9012 40.7598 32.9086 40.7598C34.2032 40.7193 39.8813 39.7615 41.9631 36.1038C42.023 35.9961 42.0559 35.8748 42.0559 35.7506C42.0559 28.7016 39.0402 20.5481 37.4942 19.1219ZM20.9403 32.8876C19.5574 32.8876 18.435 31.605 18.435 30.0246C18.435 28.4442 19.5559 27.1616 20.9403 27.1616C22.3247 27.1616 23.4456 28.4442 23.4456 30.0246C23.4456 31.605 22.3247 32.8876 20.9403 32.8876ZM30.2462 32.8876C28.8633 32.8876 27.7409 31.605 27.7409 30.0246C27.7409 28.4442 28.8618 27.1616 30.2462 27.1616C31.629 27.1616 32.7515 28.4442 32.7515 30.0246C32.7515 31.605 31.629 32.8876 30.2462 32.8876Z" fill="#5856d6" fill-rule="nonzero" opacity="1" stroke="none"/>
</g>
</svg>
