<?xml version="1.0" encoding="UTF-8" standalone="no"?>
<!DOCTYPE svg PUBLIC "-//W3C//DTD SVG 1.1//EN" "http://www.w3.org/Graphics/SVG/1.1/DTD/svg11.dtd">
<!-- Created with Vectornator (http://vectornator.io/) -->
<svg height="100%" stroke-miterlimit="10" style="fill-rule:nonzero;clip-rule:evenodd;stroke-linecap:round;stroke-linejoin:round;" version="1.1" viewBox="0 0 173.661 56.9015" width="100%" xml:space="preserve" xmlns="http://www.w3.org/2000/svg" xmlns:vectornator="http://vectornator.io" xmlns:xlink="http://www.w3.org/1999/xlink">
<defs>
<clipPath id="TextBounds">
<rect height="1" width="0" x="131.08" y="275.891"/>
</clipPath>
<clipPath id="TextBounds_2">
<rect height="32.5367" width="247.176" x="45.3158" y="13.7335"/>
</clipPath>
<clipPath id="TextBounds_3">
<rect height="9.99121" width="32.093" x="324.538" y="-30.0972"/>
</clipPath>
<clipPath id="TextBounds_4">
<rect height="33.7286" width="39.5987" x="6.19891" y="11.159"/>
</clipPath>
</defs>
<clipPath id="ArtboardFrame">
<rect height="56.9015" width="173.661" x="0" y="0"/>
</clipPath>
<g clip-path="url(#ArtboardFrame)" id="Layer-1" vectornator:layerName="Layer 1">
<g fill="#2cd45c" opacity="1" stroke="none"/>
<g fill="#2cd45c" opacity="1" stroke="none">
<path clip-path="url(#TextBounds_2)" d="M54.5426 38.5612L46.9363 18.9294L49.7485 18.9294L54.8506 33.1912C55.2613 34.3339 55.605 35.4053 55.8817 36.4051C56.1853 35.3338 56.5379 34.2625 56.9397 33.1912L62.2427 18.9294L64.8942 18.9294L57.2075 38.5612L54.5426 38.5612Z"/>
<path clip-path="url(#TextBounds_2)" d="M66.4342 21.7014L66.4342 18.9294L68.8446 18.9294L68.8446 21.7014L66.4342 21.7014ZM66.4342 38.5612L66.4342 24.3395L68.8446 24.3395L68.8446 38.5612L66.4342 38.5612Z"/>
<path clip-path="url(#TextBounds_2)" d="M82.2494 33.9813L84.7402 34.2893C84.3474 35.7445 83.6198 36.8738 82.5574 37.6773C81.495 38.4808 80.138 38.8826 78.4864 38.8826C76.4063 38.8826 74.7569 38.242 73.5383 36.9609C72.3197 35.6798 71.7104 33.8831 71.7104 31.5709C71.7104 29.1783 72.3264 27.3213 73.5584 26C74.7904 24.6787 76.3884 24.0181 78.3525 24.0181C80.2541 24.0181 81.8075 24.6654 83.0127 25.9599C84.2179 27.2544 84.8206 29.0756 84.8206 31.4235C84.8206 31.5664 84.8161 31.7807 84.8072 32.0663L74.2012 32.0663C74.2905 33.6287 74.7324 34.825 75.5269 35.6552C76.3215 36.4855 77.3124 36.9006 78.4998 36.9006C79.3837 36.9006 80.138 36.6685 80.763 36.2043C81.3879 35.74 81.8834 34.9991 82.2494 33.9813ZM74.3351 30.0844L82.2762 30.0844C82.1691 28.8881 81.8655 27.9909 81.3656 27.3927C80.5978 26.4643 79.6024 26 78.3793 26C77.2723 26 76.3416 26.3705 75.5872 27.1115C74.8328 27.8525 74.4154 28.8435 74.3351 30.0844Z"/>
<path clip-path="url(#TextBounds_2)" d="M90.3914 38.5612L86.0392 24.3395L88.53 24.3395L90.7931 32.5484L91.6368 35.6017C91.6725 35.4499 91.918 34.4723 92.3733 32.6689L94.6365 24.3395L97.1139 24.3395L99.2431 32.5886L99.9528 35.3071L100.77 32.5618L103.207 24.3395L105.55 24.3395L101.105 38.5612L98.6003 38.5612L96.3372 30.0442L95.7881 27.6204L92.909 38.5612L90.3914 38.5612Z"/>
<path clip-path="url(#TextBounds_2)" d="M118.928 38.5612L113.719 18.9294L116.384 18.9294L119.37 31.7985C119.692 33.1466 119.969 34.4857 120.201 35.8159C120.701 33.7179 120.995 32.5083 121.084 32.1869L124.821 18.9294L127.954 18.9294L130.766 28.8658C131.472 31.3298 131.981 33.6465 132.293 35.8159C132.543 34.575 132.869 33.151 133.271 31.5441L136.351 18.9294L138.962 18.9294L133.579 38.5612L131.074 38.5612L126.937 23.603C126.588 22.3531 126.383 21.5853 126.321 21.2996C126.115 22.2013 125.923 22.9691 125.745 23.603L121.58 38.5612L118.928 38.5612Z"/>
<path clip-path="url(#TextBounds_2)" d="M141.091 21.7014L141.091 18.9294L143.502 18.9294L143.502 21.7014L141.091 21.7014ZM141.091 38.5612L141.091 24.3395L143.502 24.3395L143.502 38.5612L141.091 38.5612Z"/>
<path clip-path="url(#TextBounds_2)" d="M147.184 38.5612L147.184 18.9294L149.595 18.9294L149.595 30.1246L155.299 24.3395L158.42 24.3395L152.983 29.6157L158.969 38.5612L155.996 38.5612L151.295 31.2896L149.595 32.9234L149.595 38.5612L147.184 38.5612Z"/>
<path clip-path="url(#TextBounds_2)" d="M160.897 21.7014L160.897 18.9294L163.308 18.9294L163.308 21.7014L160.897 21.7014ZM160.897 38.5612L160.897 24.3395L163.308 24.3395L163.308 38.5612L160.897 38.5612Z"/>
</g>
<path d="M8.68908 2.05056L164.329 2.05056C168.295 2.05056 171.509 5.26515 171.509 9.23056L171.509 47.2208C171.509 51.1862 168.295 54.4008 164.329 54.4008L8.68908 54.4008C4.72368 54.4008 1.50908 51.1862 1.50908 47.2208L1.50908 9.23056C1.50908 5.26515 4.72368 2.05056 8.68908 2.05056Z" fill="none" opacity="1" stroke="#2cd45c" stroke-linecap="butt" stroke-linejoin="round" stroke-width="1.99352"/>
<g fill="#2cd45c" opacity="1" stroke="none">
<path clip-path="url(#TextBounds_3)" d="M333.149-5.26956L333.149-22.5846L326.681-22.5846L326.681-24.9014L342.242-24.9014L342.242-22.5846L335.747-22.5846L335.747-5.26956L333.149-5.26956Z"/>
<path clip-path="url(#TextBounds_3)" d="M351.295-9.84942L353.785-9.54142C353.393-8.08622 352.665-6.95688 351.603-6.15339C350.54-5.34991 349.183-4.94817 347.532-4.94817C345.451-4.94817 343.802-5.58872 342.583-6.86983C341.365-8.15094 340.756-9.94762 340.756-12.2599C340.756-14.6525 341.372-16.5094 342.604-17.8307C343.836-19.152 345.434-19.8126 347.398-19.8126C349.299-19.8126 350.853-19.1654 352.058-17.8709C353.263-16.5764 353.866-14.7551 353.866-12.4072C353.866-12.2643 353.861-12.0501 353.852-11.7644L343.246-11.7644C343.336-10.2021 343.778-9.00576 344.572-8.1755C345.367-7.34523 346.358-6.9301 347.545-6.9301C348.429-6.9301 349.183-7.16221 349.808-7.62645C350.433-8.09068 350.929-8.83167 351.295-9.84942ZM343.38-13.7463L351.321-13.7463C351.214-14.9426 350.911-15.8398 350.411-16.438C349.643-17.3665 348.648-17.8307 347.424-17.8307C346.317-17.8307 345.387-17.4602 344.632-16.7192C343.878-15.9782 343.461-14.9873 343.38-13.7463Z"/>
<path clip-path="url(#TextBounds_3)" d="M326.239 27.6995L331.435 20.3075L326.628 13.4778L329.641 13.4778L331.823 16.8123C332.234 17.4462 332.564 17.9774 332.814 18.4059C333.207 17.8167 333.569 17.2944 333.899 16.8391L336.296 13.4778L339.175 13.4778L334.261 20.1735L339.55 27.6995L336.591 27.6995L333.672 23.2804L332.895 22.0885L329.159 27.6995L326.239 27.6995Z"/>
<path clip-path="url(#TextBounds_3)" d="M346.822 25.5435L347.17 27.6727C346.492 27.8156 345.884 27.887 345.349 27.887C344.474 27.887 343.795 27.7486 343.313 27.4719C342.831 27.1951 342.492 26.8313 342.296 26.3805C342.099 25.9296 342.001 24.9811 342.001 23.5348L342.001 15.3526L340.233 15.3526L340.233 13.4778L342.001 13.4778L342.001 9.95591L344.398 8.50964L344.398 13.4778L346.822 13.4778L346.822 15.3526L344.398 15.3526L344.398 23.6687C344.398 24.3561 344.44 24.798 344.525 24.9944C344.61 25.1909 344.748 25.3471 344.94 25.4631C345.132 25.5792 345.407 25.6372 345.764 25.6372C346.032 25.6372 346.384 25.606 346.822 25.5435Z"/>
</g>
<path clip-path="url(#TextBounds_4)" d="M19.1218 38.1427C19.9253 38.1427 20.6372 38.2252 21.2577 38.3904C21.8782 38.5556 22.4027 38.7475 22.8312 38.9662C23.2597 39.185 23.5945 39.3791 23.8355 39.5488C23.9605 39.6113 24.1636 39.7229 24.4449 39.8836C24.7261 40.0442 24.9069 40.1291 24.9872 40.138L24.9872 18.3502C24.6747 17.761 24.1837 17.2275 23.5141 16.7499C22.8446 16.2723 22.0701 15.8929 21.1907 15.6116C20.3114 15.3304 19.3941 15.1898 18.4388 15.1898C17.546 15.1898 16.6935 15.3014 15.8811 15.5246C15.0686 15.7478 14.3343 16.0379 13.6782 16.395C13.022 16.7521 12.4729 17.1293 12.031 17.5266C11.5891 17.9239 11.2833 18.3011 11.1137 18.6582L11.1137 38.9997C11.1137 39.4818 11.2342 39.8233 11.4753 40.0242C11.7163 40.225 12.0065 40.3255 12.3457 40.3255C12.6225 40.3255 12.8568 40.2808 13.0488 40.1916C13.2407 40.1023 13.4215 39.9862 13.5911 39.8434C13.8857 39.5934 14.2964 39.3367 14.8231 39.0734C15.3499 38.81 15.977 38.589 16.7046 38.4105C17.4322 38.2319 18.2379 38.1427 19.1218 38.1427ZM32.5667 38.1427C33.4506 38.1427 34.2541 38.2319 34.9772 38.4105C35.7003 38.589 36.3253 38.81 36.852 39.0734C37.3787 39.3367 37.7894 39.5934 38.084 39.8434C38.2536 39.9862 38.4344 40.1023 38.6263 40.1916C38.8183 40.2808 39.0526 40.3255 39.3294 40.3255C39.6686 40.3255 39.9588 40.225 40.1998 40.0242C40.4409 39.8233 40.5614 39.4818 40.5614 38.9997L40.5614 18.6582C40.3918 18.3011 40.086 17.9239 39.6441 17.5266C39.2022 17.1293 38.6554 16.7521 38.0036 16.395C37.3519 16.0379 36.6221 15.7478 35.8141 15.5246C35.0062 15.3014 34.1514 15.1898 33.2497 15.1898C32.3034 15.1898 31.3883 15.3304 30.5045 15.6116C29.6206 15.8929 28.8439 16.2723 28.1744 16.7499C27.5048 17.2275 27.0138 17.761 26.7013 18.3502L26.7013 40.1648C26.7816 40.1558 26.9624 40.0688 27.2437 39.9036C27.5249 39.7385 27.7324 39.6202 27.8664 39.5488C28.0985 39.3791 28.4288 39.185 28.8573 38.9662C29.2858 38.7475 29.8103 38.5556 30.4308 38.3904C31.0513 38.2252 31.7632 38.1427 32.5667 38.1427Z" fill="#2cd45c" opacity="1" stroke="none"/>
</g>
</svg>
